<svg xmlns="http://www.w3.org/2000/svg" viewBox="0 0 240 160" fill="none">
  <path d="M118 34a20 20 0 0 0-27 19l-38 38a9 9 0 0 0 13 13l38-38a20 20 0 0 0 23-27l-13 13a6 6 0 0 1-8-8l12-13Z" fill="#ffffff" fill-opacity="0.92"/>
  <rect x="52" y="90" width="18" height="18" rx="3" transform="rotate(45 61 99)" fill="#ffffff" fill-opacity="0.5"/>
  <rect x="146" y="60" width="46" height="26" rx="4" fill="#ffffff" fill-opacity="0.16" stroke="#ffffff" stroke-opacity="0.9" stroke-width="2.6"/>
  <rect x="192" y="68" width="5" height="10" rx="1.5" fill="#ffffff" stroke-opacity="0.9"/>
  <rect x="152" y="66" width="30" height="14" rx="2" fill="#ffffff" fill-opacity="0.55"/>
  <circle cx="150" cy="118" r="17" fill="#ffffff" fill-opacity="0.14" stroke="#ffffff" stroke-opacity="0.9" stroke-width="2.6"/>
  <circle cx="150" cy="118" r="5.5" fill="#ffffff"/>
  <rect x="147.5" y="97" width="5" height="7" fill="#ffffff" fill-opacity="0.85"/>
  <rect x="147.5" y="128" width="5" height="7" fill="#ffffff" fill-opacity="0.85"/>
  <rect x="126" y="115.5" width="7" height="5" fill="#ffffff" fill-opacity="0.85"/>
  <rect x="167" y="115.5" width="7" height="5" fill="#ffffff" fill-opacity="0.85"/>
</svg>
